# File created by Blade
# Date/Time:  Tue Jan 27 18:50:05 2015
# Frame Rate: 120.000 fps
#------------------------------------------------------
:FULLY-SPECIFIED
:DEGREES
2003
root -0.504208 32.251388 -6.685068 10.884246 -24.378812 -25.126599
Spine 11.399467 6.594342 7.313179
Head -2.265301 -38.462200 23.449250
LeftShoulder -14.273224 18.738632 17.739494
LeftArm -3.765790 -51.364514 -67.269734
LeftForeArm -5.542115 0.000000 134.523840
LeftHand -22.455765 -0.000000 24.219543
LeftHandThumb1 -26.253704 0.000000 33.147579
RightShoulder -2.705866 11.093301 -4.370299
RightArm 55.509851 -65.220156 46.567019
RightForeArm -37.175614 -0.000000 70.150754
RightHand -11.794728 0.000000 10.956600
RightHandThumb1 -24.326973 -0.000000 -32.862282
LeftUpLeg -12.138078 21.788872 9.529070
LeftLeg 26.450220 -0.000000 -0.000000
LeftFoot -44.155057 33.349475 -35.685395
LeftToeBase 7.478561 -0.000000 -0.000000
RightUpLeg -75.395029 -41.237423 7.849601
RightLeg 69.933321 -0.000000 -0.000000
RightFoot -15.100079 -24.076063 14.289396
RightToeBase 8.059469 -0.000000 -0.000000
2004
root -0.463318 32.185555 -6.718999 12.045772 -23.993632 -23.982568
Spine 9.240161 6.242328 5.985733
Head -1.731620 -38.538710 22.954551
LeftShoulder -14.376481 19.167399 18.020300
LeftArm -3.533956 -51.293428 -67.278550
LeftForeArm -5.710061 -0.000000 134.305014
LeftHand -22.554800 0.000000 24.348772
LeftHandThumb1 -26.253704 0.000000 33.147579
RightShoulder -2.846972 10.807737 -4.677668
RightArm 54.883797 -65.327052 47.459730
RightForeArm -36.962958 -0.000000 70.071560
RightHand -11.985567 -0.000000 10.947759
RightHandThumb1 -24.326973 -0.000000 -32.862282
LeftUpLeg -14.141463 21.120440 7.753763
LeftLeg 26.452915 -0.000000 -0.000000
LeftFoot -44.329631 33.791397 -35.770739
LeftToeBase 7.425951 -0.000000 -0.000000
RightUpLeg -77.916700 -41.495577 8.932663
RightLeg 72.120058 -0.000000 -0.000000
RightFoot -14.972104 -24.156116 14.170119
RightToeBase 8.326096 -0.000000 -0.000000
2005
root -0.481653 32.181723 -6.711239 12.043401 -23.940631 -23.781039
Spine 9.059021 6.197016 5.724539
Head -1.760599 -38.466919 22.787011
LeftShoulder -14.495920 19.076877 18.092460
LeftArm -3.546913 -51.101273 -67.109359
LeftForeArm -5.798668 -0.000000 134.235517
LeftHand -22.613995 -0.000000 24.269233
LeftHandThumb1 -26.253704 0.000000 33.147579
RightShoulder -2.842840 10.865778 -4.788455
RightArm 54.068649 -65.299881 48.180687
RightForeArm -36.807727 -0.000000 70.045864
RightHand -11.878932 0.000000 10.773085
RightHandThumb1 -24.326973 -0.000000 -32.862282
LeftUpLeg -14.143504 21.170900 7.558295
LeftLeg 26.250304 -0.000000 -0.000000
LeftFoot -44.206688 33.832714 -35.580801
LeftToeBase 7.455803 -0.000000 -0.000000
RightUpLeg -77.856511 -41.438406 9.313617
RightLeg 73.943758 -0.000000 -0.000000
RightFoot -15.120003 -24.216735 14.220385
RightToeBase 8.567465 -0.000000 -0.000000
2006
root -0.505073 32.179680 -6.706881 12.036517 -23.811218 -23.635921
Spine 8.920782 6.161011 5.538887
Head -1.861656 -38.454062 22.715827
LeftShoulder -14.530198 19.074963 18.189515
LeftArm -3.465220 -50.918673 -67.045616
LeftForeArm -6.093494 -0.000000 134.221208
LeftHand -22.495437 0.000000 24.107863
LeftHandThumb1 -26.253704 0.000000 33.147579
RightShoulder -2.899731 10.842080 -4.881713
RightArm 53.273180 -65.182362 48.889769
RightForeArm -36.755500 -0.000000 70.067221
RightHand -11.970126 -0.000000 11.012775
RightHandThumb1 -24.326973 -0.000000 -32.862282
LeftUpLeg -14.149753 21.186442 7.444560
LeftLeg 26.078407 -0.000000 -0.000000
LeftFoot -44.069879 33.894714 -35.336420
LeftToeBase 7.414208 -0.000000 -0.000000
RightUpLeg -77.713462 -41.443163 9.705066
RightLeg 75.654307 -0.000000 -0.000000
RightFoot -15.330682 -24.327426 14.290441
RightToeBase 8.878990 -0.000000 -0.000000
2007
root -0.527232 32.176420 -6.704856 12.048672 -23.613135 -23.481116
Spine 8.769098 6.084128 5.370748
Head -1.986706 -38.439207 22.654766
LeftShoulder -14.561287 19.059294 18.290071
LeftArm -3.373600 -50.650058 -66.983296
LeftForeArm -6.393168 0.000000 134.256868
LeftHand -22.448520 -0.000000 23.853801
LeftHandThumb1 -26.253704 0.000000 33.147579
RightShoulder -2.963815 10.709977 -5.005547
RightArm 52.974816 -65.053755 49.136986
RightForeArm -36.475064 0.000000 70.024047
RightHand -11.966067 -0.000000 10.635214
RightHandThumb1 -24.326973 -0.000000 -32.862282
LeftUpLeg -14.209466 21.161250 7.316520
LeftLeg 25.912097 -0.000000 -0.000000
LeftFoot -43.921152 33.989155 -35.028088
LeftToeBase 7.474753 -0.000000 -0.000000
RightUpLeg -77.632721 -41.521016 10.142329
RightLeg 77.294086 -0.000000 -0.000000
RightFoot -15.591565 -24.475846 14.427076
RightToeBase 9.074236 -0.000000 -0.000000
2008
root -0.549060 32.172488 -6.703089 12.058456 -23.345590 -23.329170
Spine 8.624364 5.971975 5.236716
Head -2.138621 -38.459782 22.576268
LeftShoulder -14.595445 19.072306 18.368045
LeftArm -3.209109 -50.312094 -66.953388
LeftForeArm -6.713098 -0.000000 134.343641
LeftHand -22.457738 -0.000000 23.646934
LeftHandThumb1 -26.253704 0.000000 33.147579
RightShoulder -3.002328 10.745881 -5.086040
RightArm 52.213439 -64.968268 49.765042
RightForeArm -36.251845 -0.000000 70.038725
RightHand -12.254345 -0.000000 10.533880
RightHandThumb1 -24.326973 -0.000000 -32.862282
LeftUpLeg -14.296943 21.102573 7.190475
LeftLeg 25.774861 -0.000000 -0.000000
LeftFoot -43.735791 34.078766 -34.711021
LeftToeBase 7.411673 -0.000000 -0.000000
RightUpLeg -77.524152 -41.669872 10.549039
RightLeg 78.834090 -0.000000 -0.000000
RightFoot -15.831246 -24.732464 14.455712
RightToeBase 9.036150 -0.000000 -0.000000
2009
root -0.572294 32.170459 -6.698855 12.015365 -22.999670 -23.199553
Spine 8.565659 5.822151 5.172542
Head -2.349493 -38.503403 22.518563
LeftShoulder -14.593321 19.022681 18.413314
LeftArm -3.107684 -49.923401 -66.830563
LeftForeArm -7.007562 -0.000000 134.470182
LeftHand -22.427173 -0.000000 23.420175
LeftHandThumb1 -26.253704 0.000000 33.147579
RightShoulder -3.040841 10.719915 -5.224050
RightArm 51.136175 -64.823826 50.862899
RightForeArm -36.324913 -0.000000 69.994337
RightHand -12.409699 -0.000000 10.616908
RightHandThumb1 -24.326973 -0.000000 -32.862282
LeftUpLeg -14.331805 20.997384 7.125679
LeftLeg 25.633541 -0.000000 -0.000000
LeftFoot -43.526213 34.156392 -34.355310
LeftToeBase 7.224007 -0.000000 -0.000000
RightUpLeg -77.300563 -41.905479 10.880496
RightLeg 80.279393 -0.000000 -0.000000
RightFoot -16.144477 -24.960337 14.706282
RightToeBase 9.078797 -0.000000 -0.000000
2010
root -0.593965 32.167905 -6.694641 11.980961 -22.612174 -23.080253
Spine 8.509366 5.686463 5.146362
Head -2.573018 -38.606244 22.472510
LeftShoulder -14.534254 18.994060 18.445516
LeftArm -2.981024 -49.547113 -66.718515
LeftForeArm -7.371831 -0.000000 134.640485
LeftHand -22.305334 -0.000000 23.086507
LeftHandThumb1 -26.253704 0.000000 33.147579
RightShoulder -3.094366 10.748570 -5.312550
RightArm 49.341487 -64.524999 52.789989
RightForeArm -36.624639 0.000000 69.837871
RightHand -11.800660 -0.000000 11.745197
RightHandThumb1 -24.326973 -0.000000 -32.862282
LeftUpLeg -14.407468 20.894230 7.058989
LeftLeg 25.533990 -0.000000 -0.000000
LeftFoot -43.303539 34.154039 -33.984449
LeftToeBase 7.315790 -0.000000 -0.000000
RightUpLeg -77.071723 -42.166283 11.196327
RightLeg 81.615532 -0.000000 -0.000000
RightFoot -16.507348 -25.305057 14.902085
RightToeBase 9.332953 -0.000000 -0.000000
2011
root -0.613479 32.164152 -6.696770 12.006900 -22.188963 -22.951287
Spine 8.395904 5.522941 5.109847
Head -2.792750 -38.707482 22.451878
LeftShoulder -14.486429 18.976216 18.474308
LeftArm -2.832947 -49.162631 -66.624614
LeftForeArm -7.725337 -0.000000 134.843078
LeftHand -22.243491 -0.000000 22.911577
LeftHandThumb1 -26.253704 0.000000 33.147579
RightShoulder -3.163754 10.770630 -5.398944
RightArm 48.059216 -64.251607 54.180030
RightForeArm -36.776621 -0.000000 69.666871
RightHand -11.350584 -0.000000 12.608040
RightHandThumb1 -24.326973 -0.000000 -32.862282
LeftUpLeg -14.588993 20.701140 6.976249
LeftLeg 25.482002 -0.000000 -0.000000
LeftFoot -43.060919 34.212033 -33.581641
LeftToeBase 7.235288 -0.000000 -0.000000
RightUpLeg -76.941779 -42.437372 11.542605
RightLeg 82.876942 -0.000000 -0.000000
RightFoot -16.769154 -25.585096 15.128818
RightToeBase 9.275668 -0.000000 -0.000000
2012
root -0.633956 32.162653 -6.697297 12.000538 -21.753568 -22.852754
Spine 8.340384 5.370060 5.120303
Head -3.017119 -38.839281 22.457214
LeftShoulder -14.442674 18.934963 18.471139
LeftArm -2.646762 -48.740715 -66.534851
LeftForeArm -8.001342 -0.000000 135.052844
LeftHand -22.154816 -0.000000 22.580884
LeftHandThumb1 -26.253704 0.000000 33.147579
RightShoulder -3.264315 10.733657 -5.444252
RightArm 47.844574 -64.131839 54.317498
RightForeArm -36.557998 0.000000 69.584216
RightHand -11.322454 -0.000000 12.590503
RightHandThumb1 -24.326973 -0.000000 -32.862282
LeftUpLeg -14.733325 20.531104 6.933836
LeftLeg 25.457474 -0.000000 -0.000000
LeftFoot -42.817052 34.244718 -33.197478
LeftToeBase 7.144376 -0.000000 -0.000000
RightUpLeg -76.736582 -42.724900 11.840750
RightLeg 84.032200 -0.000000 -0.000000
RightFoot -17.109124 -25.874805 15.406493
RightToeBase 9.405886 -0.000000 -0.000000
2013
root -0.654687 32.162161 -6.702232 12.006390 -21.328319 -22.784536
Spine 8.317124 5.238242 5.161427
Head -3.301359 -38.960383 22.514987
LeftShoulder -14.457639 18.888796 18.443541
LeftArm -2.359672 -48.299321 -66.514055
LeftForeArm -8.273883 0.000000 135.275598
LeftHand -22.161971 -0.000000 22.298665
LeftHandThumb1 -26.253704 0.000000 33.147579
RightShoulder -3.393763 10.697999 -5.492181
RightArm 48.196987 -64.098236 53.824859
RightForeArm -36.198949 -0.000000 69.545533
RightHand -11.461896 -0.000000 12.378261
RightHandThumb1 -24.326973 -0.000000 -32.862282
LeftUpLeg -14.909646 20.356517 6.922788
LeftLeg 25.491731 -0.000000 -0.000000
LeftFoot -42.612617 34.235984 -32.904351
LeftToeBase 7.062655 -0.000000 -0.000000
RightUpLeg -76.512606 -42.975819 12.113654
RightLeg 85.057918 -0.000000 -0.000000
RightFoot -17.529927 -26.147041 15.762509
RightToeBase 9.498850 -0.000000 -0.000000
2014
root -0.675717 32.162520 -6.706995 12.003924 -20.935680 -22.740020
Spine 8.329763 5.182375 5.236203
Head -3.613725 -39.100076 22.592508
LeftShoulder -14.415038 18.807544 18.422775
LeftArm -2.120531 -47.888760 -66.475979
LeftForeArm -8.426018 -0.000000 135.490205
LeftHand -22.076335 0.000000 21.925454
LeftHandThumb1 -26.253704 0.000000 33.147579
RightShoulder -3.669622 10.516921 -5.598551
RightArm 51.808347 -64.433993 49.605489
RightForeArm -34.618417 0.000000 69.706439
RightHand -12.314416 -0.000000 9.627554
RightHandThumb1 -24.326973 -0.000000 -32.862282
LeftUpLeg -15.067771 20.190465 6.946282
LeftLeg 25.558270 -0.000000 -0.000000
LeftFoot -42.366636 34.228869 -32.564712
LeftToeBase 6.916784 -0.000000 -0.000000
RightUpLeg -76.277491 -43.203317 12.373465
RightLeg 85.994410 -0.000000 -0.000000
RightFoot -17.924998 -26.438830 15.963633
RightToeBase 9.517477 -0.000000 -0.000000
2015
root -0.696504 32.162818 -6.710772 11.991212 -20.531878 -22.700914
Spine 8.359800 5.091756 5.314667
Head -3.883479 -39.206237 22.675116
LeftShoulder -14.388622 18.706516 18.409784
LeftArm -1.901895 -47.487924 -66.461702
LeftForeArm -8.515098 -0.000000 135.716145
LeftHand -22.015283 -0.000000 21.681519
LeftHandThumb1 -26.253704 0.000000 33.147579
RightShoulder -3.564263 10.765456 -5.549468
RightArm 46.611602 -63.822535 55.435259
RightForeArm -36.615881 -0.000000 69.384024
RightHand -11.027930 -0.000000 12.604090
RightHandThumb1 -24.326973 -0.000000 -32.862282
LeftUpLeg -15.230293 19.993481 6.985074
LeftLeg 25.678361 -0.000000 -0.000000
LeftFoot -42.248597 34.146424 -32.389897
LeftToeBase 6.905764 -0.000000 -0.000000
RightUpLeg -76.034669 -43.457259 12.605298
RightLeg 86.841542 -0.000000 -0.000000
RightFoot -18.283516 -26.715348 16.141145
RightToeBase 9.545744 -0.000000 -0.000000
